# xmcd
#
# Track frame offsets:
#	150
#	20025
#	36825
#	49650
#	63975
#	81975
#	99300
#	115425
#	130275
#	143100
#	159300
#	179175
#	195975
#	208800
#	223125
#	241125
#	258450
#	274575
#	289425
#	302250
#
# Disc length: 4251 seconds
#
# Revision: 2
# Processed by: cddbd v1.5.2PL0 Copyright (c) Steve Scherf et al.
# Submitted via: audiograbber 1.83.01
#
DISCID=2e109914
DTITLE=Country Hits Today - CHT9914
DYEAR=1999
DGENRE=Karaoke
TTITLE0=Tim Mcgraw - My Best Friend
TTITLE1=Mark Wills - Back At One
TTITLE2=Yankee Grey - All Things Considered
TTITLE3=Aaron Tippin - What This Country Needs
TTITLE4=Kenny Chesney - She Thinks My Tractor's Sexy
TTITLE5=Alabama - Small Stuff
TTITLE6=Clay Walker - Live Laugh Love
TTITLE7=Joe Diffie - Quittin' Kind
TTITLE8=Toby Keith - When Love Fades
TTITLE9=Keith Urban - It's A Love Thing
TTITLE10=Tim McGraw - My Best Friend (Vocal)
TTITLE11=Mark Wills  - Back At One (Vocal)
TTITLE12=Yankee Grey  - All Things Considered (Vocal)
TTITLE13=Aaron Tippin  - What This Country Needs (Vocal)
TTITLE14=Kenny Chesney  - She Thinks My Tractor's Sexy (Vocal)
TTITLE15=Alabama - Small Stuff (Vocal)
TTITLE16=Clay Walker  - Live Laugh Love (Vocal)
TTITLE17=Joe Diffie  - Quittin' Kind (Vocal)
TTITLE18=Toby Keith  - When Love Fades (Vocal)
TTITLE19=Keith Urban  - It's A Love Thing (Vocal)
EXTD=fixed 11-20
EXTT0=
EXTT1=
EXTT2=
EXTT3=
EXTT4=
EXTT5=
EXTT6=
EXTT7=
EXTT8=
EXTT9=
EXTT10=
EXTT11=
EXTT12=
EXTT13=
EXTT14=
EXTT15=
EXTT16=
EXTT17=
EXTT18=
EXTT19=
PLAYORDER=
